<svg width="32" height="35" viewBox="0 0 32 35" fill="none" xmlns="http://www.w3.org/2000/svg">
<path opacity="0.5" d="M16 35C8.45689 35 4.68622 35 2.34311 32.4362C-2.11928e-07 29.876 0 25.7495 0 17.5C0 9.2505 -2.11928e-07 5.12575 2.34311 2.562C4.68622 -0.00175008 8.45867 3.25311e-09 16 3.25311e-09C23.5413 3.25311e-09 27.3138 0 29.6569 2.562C32 5.1275 32 9.2505 32 17.5C32 25.7495 32 29.8743 29.6569 32.4362C27.3138 34.9982 23.5413 35 16 35Z" fill="#FFCC00"/>
<path d="M21.3333 7H10.6666C9.83997 7 9.42753 7 9.08797 7.08925C8.63618 7.20859 8.22423 7.44281 7.89346 7.76841C7.5627 8.094 7.32476 8.49952 7.20353 8.94425C7.11108 9.282 7.11108 9.688 7.11108 10.5C7.11108 11.312 7.11108 11.7197 7.20175 12.054C7.32298 12.4987 7.56092 12.9042 7.89169 13.2298C8.22245 13.5554 8.6344 13.7897 9.0862 13.909C9.42931 14 9.84175 14 10.6666 14H21.3333C22.16 14 22.5724 14 22.912 13.9108C23.3638 13.7914 23.7757 13.5572 24.1065 13.2316C24.4372 12.906 24.6752 12.5005 24.7964 12.0558C24.8889 11.718 24.8889 11.312 24.8889 10.5C24.8889 9.688 24.8889 9.28025 24.7982 8.946C24.677 8.50127 24.439 8.09575 24.1083 7.77016C23.7775 7.44456 23.3655 7.21034 22.9137 7.091C22.5724 7 22.1582 7 21.3333 7ZM8.88886 21C9.36036 21 9.81254 20.8156 10.1459 20.4874C10.4793 20.1592 10.6666 19.7141 10.6666 19.25C10.6666 18.7859 10.4793 18.3408 10.1459 18.0126C9.81254 17.6844 9.36036 17.5 8.88886 17.5C8.41737 17.5 7.96518 17.6844 7.63178 18.0126C7.29839 18.3408 7.11108 18.7859 7.11108 19.25C7.11108 19.7141 7.29839 20.1592 7.63178 20.4874C7.96518 20.8156 8.41737 21 8.88886 21ZM8.88886 28C9.36036 28 9.81254 27.8156 10.1459 27.4874C10.4793 27.1593 10.6666 26.7141 10.6666 26.25C10.6666 25.7859 10.4793 25.3408 10.1459 25.0126C9.81254 24.6844 9.36036 24.5 8.88886 24.5C8.41737 24.5 7.96518 24.6844 7.63178 25.0126C7.29839 25.3408 7.11108 25.7859 7.11108 26.25C7.11108 26.7141 7.29839 27.1593 7.63178 27.4874C7.96518 27.8156 8.41737 28 8.88886 28ZM16 21C16.4715 21 16.9237 20.8156 17.2571 20.4874C17.5904 20.1592 17.7778 19.7141 17.7778 19.25C17.7778 18.7859 17.5904 18.3408 17.2571 18.0126C16.9237 17.6844 16.4715 17.5 16 17.5C15.5285 17.5 15.0763 17.6844 14.7429 18.0126C14.4095 18.3408 14.2222 18.7859 14.2222 19.25C14.2222 19.7141 14.4095 20.1592 14.7429 20.4874C15.0763 20.8156 15.5285 21 16 21ZM16 28C16.4715 28 16.9237 27.8156 17.2571 27.4874C17.5904 27.1593 17.7778 26.7141 17.7778 26.25C17.7778 25.7859 17.5904 25.3408 17.2571 25.0126C16.9237 24.6844 16.4715 24.5 16 24.5C15.5285 24.5 15.0763 24.6844 14.7429 25.0126C14.4095 25.3408 14.2222 25.7859 14.2222 26.25C14.2222 26.7141 14.4095 27.1593 14.7429 27.4874C15.0763 27.8156 15.5285 28 16 28ZM23.1111 21C23.5826 21 24.0348 20.8156 24.3682 20.4874C24.7016 20.1592 24.8889 19.7141 24.8889 19.25C24.8889 18.7859 24.7016 18.3408 24.3682 18.0126C24.0348 17.6844 23.5826 17.5 23.1111 17.5C22.6396 17.5 22.1874 17.6844 21.854 18.0126C21.5206 18.3408 21.3333 18.7859 21.3333 19.25C21.3333 19.7141 21.5206 20.1592 21.854 20.4874C22.1874 20.8156 22.6396 21 23.1111 21ZM23.1111 28C23.5826 28 24.0348 27.8156 24.3682 27.4874C24.7016 27.1593 24.8889 26.7141 24.8889 26.25C24.8889 25.7859 24.7016 25.3408 24.3682 25.0126C24.0348 24.6844 23.5826 24.5 23.1111 24.5C22.6396 24.5 22.1874 24.6844 21.854 25.0126C21.5206 25.3408 21.3333 25.7859 21.3333 26.25C21.3333 26.7141 21.5206 27.1593 21.854 27.4874C22.1874 27.8156 22.6396 28 23.1111 28Z" fill="#FFCC00"/>
</svg>
