<svg width="32" height="35" viewBox="0 0 32 35" fill="none" xmlns="http://www.w3.org/2000/svg">
<path d="M16 0C13.0189 0 10.3916 1.99756 9.54947 4.9C8.65684 4.49024 7.71368 4.26829 6.73684 4.26829C4.95012 4.26829 3.23658 4.9878 1.97318 6.26854C0.709772 7.54927 0 9.28633 0 11.0976C0.0039904 12.61 0.501885 14.0785 1.41595 15.2738C2.33001 16.4691 3.60879 17.324 5.05263 17.7049V29.878H26.9474V17.7049C29.9116 16.9195 32 14.2049 32 11.0976C32 9.28633 31.2902 7.54927 30.0268 6.26854C28.7634 4.9878 27.0499 4.26829 25.2632 4.26829C24.2863 4.26829 23.3432 4.49024 22.4505 4.9C21.6084 1.99756 18.9811 0 16 0ZM15.1579 15.3659H16.8421V27.3171H15.1579V15.3659ZM10.1053 18.7805H11.7895V27.3171H10.1053V18.7805ZM20.2105 18.7805H21.8947V27.3171H20.2105V18.7805ZM5.05263 31.5854V33.2927C5.05263 33.7455 5.23007 34.1798 5.54593 34.4999C5.86178 34.8201 6.29016 35 6.73684 35H25.2632C25.7098 35 26.1382 34.8201 26.4541 34.4999C26.7699 34.1798 26.9474 33.7455 26.9474 33.2927V31.5854H5.05263Z" fill="#FFCC00"/>
</svg>
