<svg width="89" height="70" viewBox="0 0 89 70" fill="none" xmlns="http://www.w3.org/2000/svg">
<path d="M4 50.875L25.4958 29.3792C26.3664 28.5086 27.3999 27.818 28.5373 27.3469C29.6748 26.8757 30.8938 26.6332 32.125 26.6332C33.3562 26.6332 34.5752 26.8757 35.7127 27.3469C36.8501 27.818 37.8836 28.5086 38.7542 29.3792L60.25 50.875M54 44.625L59.8708 38.7542C60.7414 37.8836 61.7749 37.193 62.9123 36.7219C64.0497 36.2507 65.2688 36.0082 66.5 36.0082C67.7311 36.0082 68.9502 36.2507 70.0877 36.7219C71.2251 37.193 72.2586 37.8836 73.1292 38.7542L85.25 50.875M10.25 66.5H79C80.6576 66.5 82.2473 65.8415 83.4194 64.6694C84.5915 63.4973 85.25 61.9076 85.25 60.25V10.25C85.25 8.5924 84.5915 7.00268 83.4194 5.83058C82.2473 4.65848 80.6576 4 79 4H10.25C8.5924 4 7.00269 4.65848 5.83058 5.83058C4.65848 7.00268 4 8.5924 4 10.25V60.25C4 61.9076 4.65848 63.4973 5.83058 64.6694C7.00269 65.8415 8.5924 66.5 10.25 66.5ZM54 19.625H54.0333V19.6583H54V19.625ZM55.5625 19.625C55.5625 20.0394 55.3979 20.4368 55.1049 20.7299C54.8118 21.0229 54.4144 21.1875 54 21.1875C53.5856 21.1875 53.1882 21.0229 52.8951 20.7299C52.6021 20.4368 52.4375 20.0394 52.4375 19.625C52.4375 19.2106 52.6021 18.8132 52.8951 18.5201C53.1882 18.2271 53.5856 18.0625 54 18.0625C54.4144 18.0625 54.8118 18.2271 55.1049 18.5201C55.3979 18.8132 55.5625 19.2106 55.5625 19.625Z" stroke="#CCCCCC" stroke-width="6.25" stroke-linecap="round" stroke-linejoin="round"/>
</svg>
