<svg width="35" height="33" viewBox="0 0 35 33" fill="none" xmlns="http://www.w3.org/2000/svg">
<path d="M25.375 0C22.33 0 19.4075 1.4175 17.5 3.6575C15.5925 1.4175 12.67 0 9.625 0C4.235 0 0 4.235 0 9.625C0 16.24 5.95 21.63 14.9625 29.82L17.5 32.1125L20.0375 29.8025C29.05 21.63 35 16.24 35 9.625C35 4.235 30.765 0 25.375 0ZM17.675 27.2125L17.5 27.3875L17.325 27.2125C8.995 19.67 3.5 14.6825 3.5 9.625C3.5 6.125 6.125 3.5 9.625 3.5C12.32 3.5 14.945 5.2325 15.8725 7.63H19.145C20.055 5.2325 22.68 3.5 25.375 3.5C28.875 3.5 31.5 6.125 31.5 9.625C31.5 14.6825 26.005 19.67 17.675 27.2125Z" fill="#FFCC00"/>
</svg>
