<svg width="35" height="35" viewBox="0 0 35 35" fill="none" xmlns="http://www.w3.org/2000/svg">
<path d="M11.4052 18.3433C11.0587 18.3433 10.72 18.4459 10.4319 18.6382C10.1438 18.8304 9.91928 19.1037 9.78669 19.4234C9.65409 19.7431 9.6194 20.0949 9.687 20.4343C9.75459 20.7737 9.92144 21.0855 10.1664 21.3302C10.4114 21.5748 10.7236 21.7415 11.0634 21.809C11.4033 21.8765 11.7555 21.8419 12.0756 21.7094C12.3957 21.577 12.6693 21.3527 12.8618 21.065C13.0543 20.7773 13.1571 20.439 13.1571 20.093C13.1571 19.6289 12.9725 19.1839 12.6439 18.8558C12.3154 18.5276 11.8698 18.3433 11.4052 18.3433ZM11.4052 10.5049C11.0587 10.5049 10.72 10.6075 10.4319 10.7997C10.1438 10.992 9.91928 11.2652 9.78669 11.585C9.65409 11.9047 9.6194 12.2565 9.687 12.5959C9.75459 12.9353 9.92144 13.247 10.1664 13.4917C10.4114 13.7364 10.7236 13.903 11.0634 13.9706C11.4033 14.0381 11.7555 14.0034 12.0756 13.871C12.3957 13.7386 12.6693 13.5143 12.8618 13.2266C13.0543 12.9388 13.1571 12.6006 13.1571 12.2545C13.1571 11.7905 12.9725 11.3455 12.6439 11.0173C12.3154 10.6892 11.8698 10.5049 11.4052 10.5049ZM17.5192 14.0042C17.0546 14.0042 16.609 14.1885 16.2804 14.5166C15.9519 14.8448 15.7673 15.2898 15.7673 15.7538V17.5035C15.7673 17.9675 15.9519 18.4125 16.2804 18.7407C16.609 19.0688 17.0546 19.2531 17.5192 19.2531C17.9838 19.2531 18.4294 19.0688 18.7579 18.7407C19.0865 18.4125 19.271 17.9675 19.271 17.5035V15.7538C19.271 15.2898 19.0865 14.8448 18.7579 14.5166C18.4294 14.1885 17.9838 14.0042 17.5192 14.0042ZM32.41 11.5022C31.8057 11.1549 31.1382 10.9312 30.4464 10.8441C29.7547 10.757 29.0525 10.8082 28.3807 10.9948C27.6816 11.1818 27.0306 11.5159 26.4712 11.9746L6.14961 0.234409C5.8833 0.080845 5.5812 0 5.27368 0C4.96617 0 4.66407 0.080845 4.39775 0.234409C4.12715 0.386324 3.90182 0.607324 3.74483 0.874788C3.58785 1.14225 3.50484 1.44657 3.5043 1.75661V24.7995C2.47045 25.1478 1.57405 25.815 0.94435 26.7049C0.314647 27.5948 -0.0158245 28.6615 0.000582666 29.751C9.54984e-05 31.1192 0.534528 32.4335 1.49003 33.414C2.44553 34.3944 3.74658 34.9635 5.11602 35H6.13209C11.8725 34.9865 17.5071 33.4563 22.4639 30.5646C27.4206 27.673 31.523 23.5229 34.3546 18.5358C35.0085 17.3425 35.1731 15.9423 34.8136 14.6302C34.4542 13.3181 33.5987 12.1966 32.4275 11.5022H32.41ZM7.00803 4.7835L24.3339 14.774C22.4118 17.6386 19.8421 20.0116 16.8324 21.7014C13.8228 23.3913 10.4574 24.3507 7.00803 24.5021V4.7835ZM31.3063 16.8211C28.7056 21.3976 24.9075 25.1814 20.3186 27.7673C15.7298 30.3532 10.5231 31.6437 5.25616 31.5007C4.79154 31.5007 4.34595 31.3164 4.01741 30.9882C3.68887 30.6601 3.5043 30.2151 3.5043 29.751C3.50293 29.5166 3.54875 29.2843 3.63903 29.0679C3.72932 28.8515 3.86222 28.6554 4.02986 28.4913C4.35898 28.1745 4.79906 27.9986 5.25616 28.0014H6.14961C10.6479 27.9996 15.065 26.8048 18.9494 24.5392C22.8338 22.2736 26.0462 19.0184 28.2581 15.1065C28.3644 14.9145 28.5097 14.7469 28.6847 14.6143C28.8597 14.4818 29.0605 14.3872 29.2742 14.3366C29.7159 14.2155 30.1876 14.272 30.5881 14.4941C30.99 14.7098 31.2918 15.0737 31.4292 15.5083C31.5666 15.9429 31.5288 16.4139 31.3238 16.8211H31.3063Z" fill="#FFCC00"/>
</svg>
