<svg width="80" height="89" viewBox="0 0 80 89" fill="none" xmlns="http://www.w3.org/2000/svg">
<path d="M42.0546 86.4917L42.0087 86.5L41.7129 86.6458L41.6296 86.6625L41.5712 86.6458L41.2754 86.5C41.2309 86.4861 41.1976 86.493 41.1754 86.5208L41.1587 86.5625L41.0879 88.3458L41.1087 88.4292L41.1504 88.4833L41.5837 88.7917L41.6462 88.8083L41.6962 88.7917L42.1296 88.4833L42.1796 88.4167L42.1962 88.3458L42.1254 86.5667C42.1143 86.5222 42.0907 86.4972 42.0546 86.4917ZM43.1587 86.0208L43.1046 86.0292L42.3337 86.4167L42.2921 86.4583L42.2796 86.5042L42.3546 88.2958L42.3754 88.3458L42.4087 88.375L43.2462 88.7625C43.299 88.7764 43.3393 88.7653 43.3671 88.7292L43.3837 88.6708L43.2421 86.1125C43.2282 86.0625 43.2004 86.0319 43.1587 86.0208ZM40.1796 86.0292C40.1612 86.018 40.1392 86.0144 40.1183 86.0191C40.0973 86.0237 40.079 86.0363 40.0671 86.0542L40.0421 86.1125L39.9004 88.6708C39.9032 88.7208 39.9268 88.7542 39.9712 88.7708L40.0337 88.7625L40.8712 88.375L40.9129 88.3417L40.9296 88.2958L41.0004 86.5042L40.9879 86.4542L40.9462 86.4125L40.1796 86.0292Z" fill="#CCCCCC"/>
<path d="M33.3333 72.9167C33.3333 74.5743 33.9918 76.164 35.1639 77.3361C36.336 78.5082 37.9257 79.1667 39.5833 79.1667C41.2409 79.1667 42.8306 78.5082 44.0028 77.3361C45.1749 76.164 45.8333 74.5743 45.8333 72.9167V45.8333H72.9167C74.5743 45.8333 76.164 45.1749 77.3361 44.0028C78.5082 42.8306 79.1667 41.2409 79.1667 39.5833C79.1667 37.9257 78.5082 36.336 77.3361 35.1639C76.164 33.9918 74.5743 33.3333 72.9167 33.3333H45.8333V6.25C45.8333 4.5924 45.1749 3.00269 44.0028 1.83058C42.8306 0.65848 41.2409 0 39.5833 0C37.9257 0 36.336 0.65848 35.1639 1.83058C33.9918 3.00269 33.3333 4.5924 33.3333 6.25V33.3333H6.25C4.5924 33.3333 3.00269 33.9918 1.83058 35.1639C0.65848 36.336 0 37.9257 0 39.5833C0 41.2409 0.65848 42.8306 1.83058 44.0028C3.00269 45.1749 4.5924 45.8333 6.25 45.8333H33.3333V72.9167Z" fill="#CCCCCC"/>
</svg>
