<svg width="34" height="43" viewBox="0 0 34 43" fill="none" xmlns="http://www.w3.org/2000/svg">
<path d="M24.5 15.0558C24.5 12.7755 27.659 12.1702 28.496 14.3063C30.524 19.4663 32 24.0901 32 26.5865C32 30.4092 30.4196 34.0753 27.6066 36.7784C24.7936 39.4814 20.9782 41 17 41C13.0218 41 9.20644 39.4814 6.3934 36.7784C3.58035 34.0753 2 30.4092 2 26.5865C2 23.9056 3.704 18.7715 5.966 13.1445C8.891 5.85707 10.355 2.21335 12.164 2.01733C12.74 1.95391 13.373 2.06633 13.889 2.32578C15.5 3.13293 15.5 7.10817 15.5 15.0558C15.5 16.2026 15.9741 17.3024 16.818 18.1133C17.6619 18.9242 18.8065 19.3798 20 19.3798C21.1935 19.3798 22.3381 18.9242 23.182 18.1133C24.0259 17.3024 24.5 16.2026 24.5 15.0558Z" stroke="#FF4D00" stroke-width="3"/>
<path d="M14.001 40.9998L13.212 39.1059C12.5387 37.4934 12.3236 35.7379 12.5888 34.0192C12.8539 32.3005 13.5898 30.6804 14.721 29.3249C14.9944 28.9962 15.3414 28.7309 15.736 28.5485C16.1307 28.3662 16.563 28.2715 17.001 28.2715C17.4389 28.2715 17.8712 28.3662 18.2659 28.5485C18.6606 28.7309 19.0075 28.9962 19.281 29.3249C21.579 32.0866 22.155 35.8225 20.79 39.1059L20.001 40.9998" stroke="#FF4D00" stroke-width="3"/>
</svg>
