<svg width="25" height="25" viewBox="0 0 25 25" fill="none" xmlns="http://www.w3.org/2000/svg">
<path d="M9.11019 1.59432C10.0534 0.585227 11.2352 0 12.5 0C13.7648 0 14.9466 0.585227 15.8898 1.59432C17.7114 3.54432 19.691 6.33295 21.3399 9.3C22.9853 12.2602 24.3501 15.4818 24.8774 18.3045C25.0479 19.2193 25.0694 20.1545 24.7547 21.0682C24.4365 21.9932 23.8138 22.7773 22.9069 23.458C22.4899 23.7705 21.8615 23.9773 21.2671 24.1307C20.6194 24.2977 19.8171 24.4489 18.9182 24.5739C17.1171 24.8273 14.8523 24.9943 12.5034 25H12.4977C10.1477 24.9943 7.88404 24.8273 6.08175 24.5739C5.29121 24.4696 4.50704 24.3217 3.73287 24.1307C3.13968 23.9773 2.51013 23.7705 2.09308 23.458C1.18625 22.7761 0.564651 21.992 0.24533 21.0682C-0.069446 20.1545 -0.0478548 19.2193 0.122601 18.3045C0.64988 15.483 2.01467 12.2591 3.66014 9.3C5.30902 6.33409 7.28858 3.54318 9.11019 1.59432ZM12.5 2.27273C11.975 2.27273 11.3659 2.51023 10.7716 3.14659C9.1011 4.93295 7.22608 7.56136 5.64652 10.4045C4.06128 13.2545 2.82149 16.2352 2.35671 18.7227C2.22944 19.4045 2.2499 19.9102 2.39422 20.3273C2.53399 20.733 2.82945 21.1682 3.45786 21.6409C3.45483 21.6386 3.45483 21.6386 3.45786 21.6409C3.47036 21.6477 3.53059 21.6818 3.66468 21.7341C3.81999 21.7947 4.03211 21.8602 4.30105 21.9307C4.83969 22.0693 5.55107 22.2045 6.39767 22.3239L6.81812 22.3807V13.6364H18.1819V22.3795C18.3258 22.3621 18.466 22.3432 18.6023 22.3227C19.3079 22.2308 20.0078 22.0999 20.6989 21.9307C20.9147 21.8777 21.1272 21.812 21.3353 21.7341C21.4694 21.6818 21.5285 21.6477 21.541 21.6409C21.5448 21.6386 21.5448 21.6386 21.541 21.6409C22.1694 21.1682 22.466 20.733 22.6058 20.3273C22.7501 19.9102 22.7706 19.4045 22.6433 18.7216C22.1774 16.2352 20.9387 13.2557 19.3535 10.4034C17.7739 7.5625 15.8989 4.93295 14.2284 3.14659C13.6341 2.51023 13.025 2.27273 12.5 2.27273ZM15.9091 22.6023V15.9091H9.09087V22.6023C10.1659 22.6784 11.3193 22.7239 12.5 22.7273C13.6375 22.7244 14.7745 22.6827 15.9091 22.6023ZM11.3614 4.69091H13.6386V6.96818H11.3614V4.69091ZM8.29087 9.30341H10.567V11.5807H8.29087V9.30341ZM14.433 9.30341H16.7091V11.5807H14.433V9.30341Z" fill="#ADADAD"/>
</svg>
