<svg width="25" height="25" viewBox="0 0 25 25" fill="none" xmlns="http://www.w3.org/2000/svg">
  <path fill-rule="evenodd" clip-rule="evenodd"
    d="M12.5 0C19.4037 0 25 5.59625 25 12.5C25 19.4037 19.4037 25 12.5 25C5.59625 25 0 19.4037 0 12.5C0 5.59625 5.59625 0 12.5 0ZM12.5 2.5C9.84783 2.5 7.3043 3.55357 5.42893 5.42893C3.55357 7.3043 2.5 9.84783 2.5 12.5C2.5 15.1522 3.55357 17.6957 5.42893 19.5711C7.3043 21.4464 9.84783 22.5 12.5 22.5C15.1522 22.5 17.6957 21.4464 19.5711 19.5711C21.4464 17.6957 22.5 15.1522 22.5 12.5C22.5 9.84783 21.4464 7.3043 19.5711 5.42893C17.6957 3.55357 15.1522 2.5 12.5 2.5ZM11.48 18.1888C11.7822 18.0892 12.1111 18.1086 12.3995 18.2431C12.6879 18.3776 12.9142 18.617 13.0321 18.9126C13.1501 19.2081 13.1509 19.5376 13.0344 19.8337C12.9178 20.1298 12.6928 20.3704 12.405 20.5063L12.27 20.5612L10.395 21.1862C10.0928 21.2858 9.7639 21.2664 9.47549 21.1319C9.18707 20.9974 8.96082 20.758 8.84285 20.4624C8.72488 20.1669 8.72408 19.8374 8.84062 19.5413C8.95715 19.2452 9.18224 19.0046 9.47 18.8687L9.605 18.8138L11.48 18.1888ZM17.7588 17.2413L18.3838 17.8662C18.6114 18.102 18.7374 18.4178 18.7346 18.7455C18.7317 19.0732 18.6003 19.3868 18.3685 19.6185C18.1368 19.8503 17.8232 19.9817 17.4955 19.9846C17.1678 19.9874 16.852 19.8614 16.6163 19.6338L15.9913 19.0088C15.7636 18.773 15.6376 18.4572 15.6404 18.1295C15.6433 17.8018 15.7747 17.4882 16.0065 17.2565C16.2382 17.0247 16.5518 16.8933 16.8795 16.8904C17.2072 16.8876 17.523 17.0136 17.7588 17.2413ZM12.5 7.5C13.8261 7.5 15.0979 8.02678 16.0355 8.96447C16.9732 9.90215 17.5 11.1739 17.5 12.5C17.5 13.8261 16.9732 15.0979 16.0355 16.0355C15.0979 16.9732 13.8261 17.5 12.5 17.5C11.1739 17.5 9.90215 16.9732 8.96447 16.0355C8.02678 15.0979 7.5 13.8261 7.5 12.5C7.5 11.1739 8.02678 9.90215 8.96447 8.96447C9.90215 8.02678 11.1739 7.5 12.5 7.5ZM6.1175 13.1913L6.7425 14.4413C6.82196 14.5886 6.87101 14.7504 6.88674 14.9171C6.90248 15.0837 6.88457 15.2519 6.8341 15.4115C6.78362 15.5711 6.7016 15.7189 6.59289 15.8462C6.48419 15.9735 6.35102 16.0777 6.20129 16.1526C6.05156 16.2274 5.88832 16.2715 5.72125 16.2821C5.55418 16.2926 5.38669 16.2695 5.22871 16.2142C5.07074 16.1588 4.92549 16.0722 4.8016 15.9596C4.67772 15.847 4.5777 15.7107 4.5075 15.5587L3.8825 14.3087C3.80304 14.1614 3.75399 13.9996 3.73826 13.8329C3.72252 13.6663 3.74043 13.4981 3.7909 13.3385C3.84138 13.1789 3.9234 13.0311 4.03211 12.9038C4.14081 12.7765 4.27398 12.6723 4.42371 12.5974C4.57344 12.5226 4.73668 12.4785 4.90375 12.4679C5.07082 12.4574 5.23831 12.4805 5.39629 12.5358C5.55426 12.5912 5.69951 12.6778 5.8234 12.7904C5.94728 12.903 6.0473 13.0393 6.1175 13.1913ZM18.4912 13.4913C18.7065 13.276 18.9929 13.1467 19.2966 13.1276C19.6004 13.1085 19.9007 13.2009 20.1413 13.3875L20.2588 13.4913L20.8838 14.1163C21.1079 14.3412 21.2381 14.643 21.2478 14.9605C21.2575 15.2779 21.146 15.5871 20.9359 15.8253C20.7259 16.0636 20.4331 16.2129 20.1169 16.243C19.8008 16.2731 19.485 16.1818 19.2337 15.9875L19.1162 15.8837L18.4912 15.2587C18.2569 15.0243 18.1253 14.7065 18.1253 14.375C18.1253 14.0435 18.2569 13.7257 18.4912 13.4913ZM12.5 10C11.837 10 11.2011 10.2634 10.7322 10.7322C10.2634 11.2011 10 11.837 10 12.5C10 13.163 10.2634 13.7989 10.7322 14.2678C11.2011 14.7366 11.837 15 12.5 15C13.163 15 13.7989 14.7366 14.2678 14.2678C14.7366 13.7989 15 13.163 15 12.5C15 11.837 14.7366 11.2011 14.2678 10.7322C13.7989 10.2634 13.163 10 12.5 10ZM5.88375 7.86625L6.50875 8.49125C6.73645 8.727 6.86244 9.04276 6.85959 9.3705C6.85674 9.69825 6.72528 10.0118 6.49352 10.2435C6.26176 10.4753 5.94825 10.6067 5.6205 10.6096C5.29276 10.6124 4.977 10.4864 4.74125 10.2587L4.11625 9.63375C3.88855 9.398 3.76256 9.08224 3.76541 8.7545C3.76826 8.42675 3.89972 8.11324 4.13148 7.88148C4.36324 7.64972 4.67675 7.51826 5.0045 7.51541C5.33224 7.51256 5.648 7.63855 5.88375 7.86625ZM18.3838 5.36625C18.599 5.58149 18.7283 5.86787 18.7474 6.17165C18.7665 6.47543 18.6741 6.77574 18.4875 7.01625L18.3838 7.13375L17.7588 7.75875C17.5338 7.98293 17.232 8.11309 16.9145 8.12279C16.5971 8.13248 16.2879 8.02098 16.0497 7.81094C15.8114 7.6009 15.6621 7.30806 15.632 6.99191C15.6019 6.67575 15.6932 6.35999 15.8875 6.10875L15.9913 5.99125L16.6163 5.36625C16.8507 5.13191 17.1685 5.00027 17.5 5.00027C17.8315 5.00027 18.1493 5.13191 18.3838 5.36625ZM10.0637 3.97875C10.1608 3.68842 10.361 3.4438 10.6265 3.29127C10.8919 3.13875 11.204 3.08893 11.5037 3.15125L11.645 3.18875L13.52 3.81375C13.8233 3.914 14.0768 4.12657 14.2283 4.40783C14.3798 4.68909 14.4178 5.01768 14.3346 5.32612C14.2514 5.63456 14.0533 5.89945 13.7809 6.06638C13.5086 6.23332 13.1826 6.28963 12.87 6.22375L12.73 6.18625L10.855 5.56125C10.6992 5.50941 10.5551 5.42738 10.431 5.31985C10.307 5.21232 10.2053 5.08139 10.1318 4.93455C10.0583 4.78771 10.0145 4.62783 10.0028 4.46404C9.99113 4.30026 10.0118 4.13453 10.0637 3.97875Z"
    fill="#D279BC" />
</svg>