<svg width="25" height="25" viewBox="0 0 25 25" fill="none" xmlns="http://www.w3.org/2000/svg">
<path d="M17.1396 2.49946C18.1769 2.49946 19.1642 2.7744 20.0016 3.32428C21.4263 4.24908 22.3011 5.66127 22.5011 7.29842C22.5726 8.09143 22.4698 8.89048 22.1999 9.63958C21.9301 10.3887 21.4997 11.0697 20.9389 11.635C20.0641 12.4973 18.9518 13.0472 17.727 13.1721C15.34 13.4221 13.2404 14.3719 11.6782 15.959C11.4892 16.143 11.2358 16.246 10.9721 16.246C10.7083 16.246 10.4549 16.143 10.2659 15.959L9.02868 14.7218C8.94106 14.6353 8.8716 14.5321 8.82439 14.4184C8.77717 14.3046 8.75315 14.1826 8.75374 14.0595C8.75374 13.747 8.89121 13.4721 9.15366 13.2096C10.6659 11.685 11.5907 9.66041 11.8156 7.33591C11.9781 5.67377 12.8654 4.24908 14.3152 3.31178C15.14 2.7744 16.1148 2.49946 17.1396 2.49946ZM17.1396 0C15.6774 0 14.2152 0.399913 12.9529 1.21224C10.7534 2.62443 9.54109 4.82396 9.32863 7.09846C9.16616 8.74811 8.54128 10.2853 7.3915 11.435L7.354 11.4725C5.90428 12.9222 5.90428 15.1342 7.26652 16.4839L8.50378 17.7212C9.19115 18.4085 10.0785 18.7459 10.9658 18.7459C11.8531 18.7459 12.753 18.4085 13.4403 17.7212C14.6526 16.5089 16.2523 15.8466 17.9895 15.6591C19.7016 15.4716 21.3763 14.7218 22.7011 13.4096C23.5322 12.5796 24.1661 11.5734 24.5559 10.4655C24.9457 9.35746 25.0814 8.17601 24.953 7.0085C24.8246 5.84098 24.4354 4.71726 23.8141 3.72045C23.1929 2.72364 22.3555 1.87925 21.3638 1.24973C20.1016 0.412411 18.6268 0 17.1396 0ZM5.32939 22.3202C5.66683 23.02 5.55435 23.8698 4.96696 24.4447C4.71256 24.7029 4.38833 24.8813 4.03403 24.9579C3.67972 25.0345 3.31076 25.0061 2.97239 24.8761C2.63402 24.746 2.34097 24.5201 2.12917 24.2259C1.91738 23.9317 1.79605 23.5821 1.78007 23.22C1.41793 23.204 1.06832 23.0827 0.774139 22.8709C0.479955 22.6591 0.253984 22.366 0.123945 22.0277C-0.00609405 21.6893 -0.0345464 21.3204 0.0420778 20.9661C0.118702 20.6118 0.297071 20.2876 0.555305 20.0332C1.1302 19.4583 1.99253 19.3333 2.6799 19.6707L5.7793 16.6339C5.95427 16.8713 6.15423 17.1463 6.37919 17.3712L7.61645 18.6085C7.8789 18.8584 8.12886 19.0709 8.45379 19.2583L5.32939 22.3202Z" fill="#C07D00"/>
</svg>
